<svg id="Layer_1" data-name="Layer 1" xmlns="http://www.w3.org/2000/svg" viewBox="0 0 144 144"><path d="M72,0a72,72,0,1,0,72,72A72,72,0,0,0,72,0ZM24.79,85c-.17,1.1-.37,2.2-.56,3.29a5.39,5.39,0,0,1-.23.81.38.38,0,0,1-.43.27c-.17,0-.24-.18-.27-.34-.1-.61-.22-1.22-.31-1.83-.16-1.08-.28-2.16-.44-3.23a10.51,10.51,0,0,1,.17-3c.17-1.23.32-2.46.57-3.67a1.08,1.08,0,0,1,.38-.77,1.26,1.26,0,0,1,.54,1c.3,1.77.63,3.54.84,5.33A8.13,8.13,0,0,1,24.79,85ZM31,86.52c-.22,1.75-.46,3.5-.7,5.25a6.14,6.14,0,0,1-.15.72c-.07.26-.19.48-.5.46a.52.52,0,0,1-.45-.51c-.15-1-.28-1.9-.38-2.85-.22-2.07-.39-4.13-.64-6.19a7.25,7.25,0,0,1,.08-1.75c.29-2.56.51-5.12.91-7.65.06-.38,0-.93.55-.94s.47.6.52.94c.35,2.51.67,5,1,7.54.06.46.12.92.18,1.36C31.3,84.13,31.18,85.33,31,86.52Zm6.31-1.73q-.45,4.3-.93,8.59a4.6,4.6,0,0,1-.19.91.51.51,0,0,1-.5.36c-.26,0-.36-.17-.43-.4A8.76,8.76,0,0,1,35,92.41c-.31-3.08-.58-6.17-.86-9.18.15-1.8.29-3.53.45-5.26s.34-3.64.5-5.46a4.66,4.66,0,0,1,.23-1.18.44.44,0,0,1,.51-.32.43.43,0,0,1,.34.39c.14.86.29,1.71.38,2.57.32,2.84.64,5.67.9,8.51A12.87,12.87,0,0,1,37.34,84.79Zm5.8,3.15c-.1,1.79-.32,3.58-.49,5.36,0,.43-.13.86-.17,1.29a.63.63,0,0,1-.72.66c-.41,0-.59-.23-.63-.64-.08-.87-.21-1.72-.28-2.59-.24-3-.53-6.1-.64-9,.06-2.32.33-4.47.47-6.63.07-1.12.2-2.22.29-3.34a3.94,3.94,0,0,1,.33-1.34c.11-.24.27-.44.55-.41s.35.21.44.43a4.51,4.51,0,0,1,.32,1.35c.28,2.58.46,5.18.8,7.76C43.74,83.22,43.27,85.57,43.14,87.94Zm6.3-2.47c-.26,3-.44,6-.87,9-.07.46,0,1-.71,1-.53,0-.9-.33-1-1-.11-1.14-.15-2.29-.23-3.44-.16-2.28-.33-4.57-.49-6.86a14.82,14.82,0,0,1,0-1.49c.17-3.69.34-7.37.53-11.06.1-2,.25-4,.39-5.94a3.35,3.35,0,0,1,.11-.55c.07-.32.2-.6.59-.59a.71.71,0,0,1,.74.68c.07.46.15.93.18,1.39q.48,8,.94,16.07A16.34,16.34,0,0,1,49.44,85.47Zm5.76,4c-.13,1.64-.17,3.28-.41,4.91a1,1,0,0,1-.75,1A1.13,1.13,0,0,1,52.86,95a2,2,0,0,1-.34-1.14c-.11-1.51-.24-3-.33-4.54-.22-3.75-.29-7.51-.13-13,.08-2.89.16-7.48.35-12.07.08-1.91.05-3.84.32-5.75.1-.73.28-1,.86-1s.95.12,1,.75c.21,1.66.27,3.34.33,5q.27,7.53.47,15.07A103.87,103.87,0,0,1,55.2,89.5Zm6.32-4c-.11,2.85-.31,5.69-.57,8.53a1.5,1.5,0,0,1-.37,1,1.34,1.34,0,0,1-1.29.35c-.55-.13-.68-.59-.75-1.06-.23-1.51-.26-3-.36-4.54-.34-4.84-.24-9.67-.16-14.51.09-4.43.24-8.86.39-13.29a19.64,19.64,0,0,1,.23-2.31c.06-.46.26-.81.83-.83.73,0,1.12.15,1.36.71a3.16,3.16,0,0,1,.14,1c.17,2.26.15,4.52.22,6.78q.16,5.25.35,10.51C61.55,80.39,61.61,82.93,61.52,85.47Zm5.78,8.41a1.58,1.58,0,0,1-1.45,1.54,1.63,1.63,0,0,1-1.53-1.48c-.08-.68-.12-1.36-.16-2-.28-4.92-.53-9.84-.39-14.78.18-6,.28-11.9.41-17.85a48.14,48.14,0,0,1,.29-6.12c.16-1,.58-1.52,1.32-1.5a1.52,1.52,0,0,1,1.46,1.62q.14,3.81.22,7.62c.09,3.75.08,7.51.27,11.25.16,3.07.05,6.14.1,8.22C67.84,85.53,67.6,89.71,67.3,93.88Zm47.87-.36a21.2,21.2,0,0,1-3.65,1.61,4.54,4.54,0,0,1-1.47.19c-.49,0-1,0-1.49,0L72,95.38a4,4,0,0,1-.92,0A1.47,1.47,0,0,1,70,93.73V77.25c0-8.41,0-16.83,0-25.24a1.72,1.72,0,0,1,1.26-1.87A23.72,23.72,0,0,1,94,53.33a23.59,23.59,0,0,1,8.8,14.46c.11.51.2,1,.31,1.54,0,.09.08.16.16.3a31.11,31.11,0,0,1,3.22-.76,13.3,13.3,0,0,1,14.76,10.51A13.46,13.46,0,0,1,115.17,93.52Z"/></svg>