<svg id="Layer_1" data-name="Layer 1" xmlns="http://www.w3.org/2000/svg" viewBox="0 0 144 144"><defs><style>.cls-1{fill:#fff;}</style></defs><circle cx="72" cy="72" r="72"/><path class="cls-1" d="M103.23,69.63a31.11,31.11,0,0,1,3.22-.76,13.3,13.3,0,0,1,14.76,10.51,13.46,13.46,0,0,1-6,14.14,21.2,21.2,0,0,1-3.65,1.61,4.54,4.54,0,0,1-1.47.19c-.49,0-1,0-1.49,0L72,95.38a4,4,0,0,1-.92,0A1.47,1.47,0,0,1,70,93.73V77.25c0-8.41,0-16.83,0-25.24a1.72,1.72,0,0,1,1.26-1.87A23.72,23.72,0,0,1,94,53.33a23.59,23.59,0,0,1,8.8,14.46c.11.51.2,1,.31,1.54C103.08,69.42,103.15,69.49,103.23,69.63Z"/><path class="cls-1" d="M67.84,80.36c0,5.17-.24,9.35-.54,13.52a1.58,1.58,0,0,1-1.45,1.54,1.63,1.63,0,0,1-1.53-1.48c-.08-.68-.12-1.36-.16-2-.28-4.92-.53-9.84-.39-14.78.18-6,.28-11.9.41-17.85a48.14,48.14,0,0,1,.29-6.12c.16-1,.58-1.52,1.32-1.5a1.52,1.52,0,0,1,1.46,1.62q.14,3.81.22,7.62c.09,3.75.08,7.51.27,11.25C67.9,75.21,67.79,78.28,67.84,80.36Z"/><path class="cls-1" d="M61.54,77.85c0,2.54.07,5.08,0,7.62-.11,2.85-.31,5.69-.57,8.53a1.5,1.5,0,0,1-.37,1,1.34,1.34,0,0,1-1.29.35c-.55-.13-.68-.59-.75-1.06-.23-1.51-.26-3-.36-4.54-.34-4.84-.24-9.67-.16-14.51.09-4.43.24-8.86.39-13.29a19.64,19.64,0,0,1,.23-2.31c.06-.46.26-.81.83-.83.73,0,1.12.15,1.36.71a3.16,3.16,0,0,1,.14,1c.17,2.26.15,4.52.22,6.78Q61.36,72.59,61.54,77.85Z"/><path class="cls-1" d="M52.06,76.35c.08-2.89.16-7.48.35-12.07.08-1.91.05-3.84.32-5.75.1-.73.28-1,.86-1s.95.12,1,.75c.21,1.66.27,3.34.33,5q.27,7.53.47,15.07A103.87,103.87,0,0,1,55.2,89.5c-.13,1.64-.17,3.28-.41,4.91a1,1,0,0,1-.75,1A1.12,1.12,0,0,1,52.86,95a2,2,0,0,1-.34-1.14c-.11-1.51-.24-3-.33-4.54C52,85.56,51.9,81.8,52.06,76.35Z"/><path class="cls-1" d="M49.63,82.59a16.34,16.34,0,0,1-.19,2.88c-.26,3-.44,6-.87,9-.07.46,0,1-.71,1-.53,0-.9-.33-1-1-.11-1.14-.15-2.29-.23-3.44-.16-2.28-.33-4.57-.49-6.86a14.82,14.82,0,0,1,0-1.49c.17-3.69.34-7.37.53-11.06.1-2,.25-4,.39-5.94a3.35,3.35,0,0,1,.11-.55c.07-.32.2-.6.59-.59a.71.71,0,0,1,.74.68c.07.46.15.93.18,1.39Q49.17,74.56,49.63,82.59Z"/><path class="cls-1" d="M40.21,83c.06-2.32.33-4.47.47-6.63.07-1.12.2-2.22.29-3.34a3.94,3.94,0,0,1,.33-1.34c.11-.24.27-.44.55-.41s.35.21.44.43a4.51,4.51,0,0,1,.32,1.35c.28,2.58.46,5.18.8,7.76.33,2.4-.14,4.75-.27,7.12-.1,1.79-.32,3.58-.49,5.36,0,.43-.13.86-.17,1.29a.63.63,0,0,1-.72.66c-.41,0-.59-.23-.63-.64-.08-.87-.21-1.72-.28-2.59C40.61,89,40.32,85.92,40.21,83Z"/><path class="cls-1" d="M34.18,83.23c.15-1.8.29-3.53.45-5.26s.34-3.64.5-5.46a4.66,4.66,0,0,1,.23-1.18.44.44,0,0,1,.51-.32.43.43,0,0,1,.34.39c.14.86.29,1.71.38,2.57.32,2.84.64,5.67.9,8.51a12.87,12.87,0,0,1-.15,2.31q-.45,4.3-.93,8.59a4.6,4.6,0,0,1-.19.91.51.51,0,0,1-.5.36c-.26,0-.36-.17-.43-.4A8.76,8.76,0,0,1,35,92.41C34.73,89.33,34.46,86.24,34.18,83.23Z"/><path class="cls-1" d="M31.44,82.9c-.14,1.23-.26,2.43-.41,3.62-.22,1.75-.46,3.5-.7,5.25a6.14,6.14,0,0,1-.15.72c-.07.26-.19.48-.5.46a.52.52,0,0,1-.45-.51c-.15-1-.28-1.9-.38-2.85-.22-2.07-.39-4.13-.64-6.19a7.25,7.25,0,0,1,.08-1.75c.29-2.56.51-5.12.91-7.65.06-.38,0-.93.55-.94s.47.6.52.94c.35,2.51.67,5,1,7.54C31.32,82,31.38,82.46,31.44,82.9Z"/><path class="cls-1" d="M23.67,76.61a1.26,1.26,0,0,1,.54,1c.3,1.77.63,3.54.84,5.33A8.13,8.13,0,0,1,24.79,85c-.17,1.1-.37,2.2-.56,3.29a5.39,5.39,0,0,1-.23.81.38.38,0,0,1-.43.27c-.17,0-.24-.18-.27-.34-.1-.61-.22-1.22-.31-1.83-.16-1.08-.28-2.16-.44-3.23a10.51,10.51,0,0,1,.17-3c.17-1.23.32-2.46.57-3.67A1.08,1.08,0,0,1,23.67,76.61Z"/></svg>